  0
SECTION
  2
BLOCKS
  0
ENDSEC
  0
SECTION
  2
ENTITIES
  0
LINE
  8
0
 10
5.52846
 20
-36.6409
 11
65.6868
 21
-21.6418
  0
LINE
  8
0
 10
65.6868
 20
-21.6418
 11
135.343
 21
13.1326
  0
LINE
  8
0
 10
135.343
 20
13.1326
 11
120.344
 21
73.2909
  0
LINE
  8
0
 10
120.344
 20
73.2909
 11
25
 21
88.005
  0
LINE
  8
0
 10
25
 20
88.005
 11
-25
 21
88.005
  0
LINE
  8
0
 10
-25
 20
88.005
 11
-120.344
 21
73.2909
  0
LINE
  8
0
 10
-120.344
 20
73.2909
 11
-135.343
 21
13.1326
  0
LINE
  8
0
 10
-135.343
 20
13.1326
 11
-65.6868
 21
-21.6418
  0
LINE
  8
0
 10
-65.6868
 20
-21.6418
 11
-5.52846
 21
-36.6409
  0
LINE
  8
0
 10
-5.52846
 20
-36.6409
 11
-0.00498962
 21
-38
  0
LINE
  8
0
 10
-0.00498962
 20
-38
 11
0.00498962
 21
-38
  0
LINE
  8
0
 10
0.00498962
 20
-38
 11
5.52846
 21
-36.6409
  0
LINE
  8
0
 10
-31.3914
 20
81.6263
 11
-31.4843
 21
81.6418
  0
LINE
  8
0
 10
-31.4843
 20
81.6418
 11
-31.5735
 21
81.6717
  0
LINE
  8
0
 10
-31.5735
 20
81.6717
 11
-31.6571
 21
81.7152
  0
LINE
  8
0
 10
-31.6571
 20
81.7152
 11
-31.7327
 21
81.7712
  0
LINE
  8
0
 10
-31.7327
 20
81.7712
 11
-31.7987
 21
81.8383
  0
LINE
  8
0
 10
-31.7987
 20
81.8383
 11
-31.8534
 21
81.915
  0
LINE
  8
0
 10
-31.8534
 20
81.915
 11
-31.8954
 21
81.9993
  0
LINE
  8
0
 10
-31.8954
 20
81.9993
 11
-31.9237
 21
82.0891
  0
LINE
  8
0
 10
-31.9237
 20
82.0891
 11
-31.9377
 21
82.1822
  0
LINE
  8
0
 10
-31.9377
 20
82.1822
 11
-31.9368
 21
82.2763
  0
LINE
  8
0
 10
-31.9368
 20
82.2763
 11
-31.9213
 21
82.3692
  0
LINE
  8
0
 10
-31.9213
 20
82.3692
 11
-31.8914
 21
82.4585
  0
LINE
  8
0
 10
-31.8914
 20
82.4585
 11
-31.8479
 21
82.542
  0
LINE
  8
0
 10
-31.8479
 20
82.542
 11
-31.7919
 21
82.6177
  0
LINE
  8
0
 10
-31.7919
 20
82.6177
 11
-31.7248
 21
82.6836
  0
LINE
  8
0
 10
-31.7248
 20
82.6836
 11
-31.6481
 21
82.7383
  0
LINE
  8
0
 10
-31.6481
 20
82.7383
 11
-31.5639
 21
82.7803
  0
LINE
  8
0
 10
-31.5639
 20
82.7803
 11
-31.4741
 21
82.8086
  0
LINE
  8
0
 10
-31.4741
 20
82.8086
 11
-31.381
 21
82.8226
  0
LINE
  8
0
 10
-31.381
 20
82.8226
 11
-31.2868
 21
82.8217
  0
LINE
  8
0
 10
-31.2868
 20
82.8217
 11
-31.194
 21
82.8062
  0
LINE
  8
0
 10
-31.194
 20
82.8062
 11
-31.1047
 21
82.7763
  0
LINE
  8
0
 10
-31.1047
 20
82.7763
 11
-31.0211
 21
82.7328
  0
LINE
  8
0
 10
-31.0211
 20
82.7328
 11
-30.9455
 21
82.6768
  0
LINE
  8
0
 10
-30.9455
 20
82.6768
 11
-30.8795
 21
82.6097
  0
LINE
  8
0
 10
-30.8795
 20
82.6097
 11
-30.8248
 21
82.533
  0
LINE
  8
0
 10
-30.8248
 20
82.533
 11
-30.7828
 21
82.4488
  0
LINE
  8
0
 10
-30.7828
 20
82.4488
 11
-30.7545
 21
82.359
  0
LINE
  8
0
 10
-30.7545
 20
82.359
 11
-30.7406
 21
82.2659
  0
LINE
  8
0
 10
-30.7406
 20
82.2659
 11
-30.7414
 21
82.1717
  0
LINE
  8
0
 10
-30.7414
 20
82.1717
 11
-30.7569
 21
82.0789
  0
LINE
  8
0
 10
-30.7569
 20
82.0789
 11
-30.7868
 21
81.9896
  0
LINE
  8
0
 10
-30.7868
 20
81.9896
 11
-30.8303
 21
81.9061
  0
LINE
  8
0
 10
-30.8303
 20
81.9061
 11
-30.8863
 21
81.8304
  0
LINE
  8
0
 10
-30.8863
 20
81.8304
 11
-30.9534
 21
81.7644
  0
LINE
  8
0
 10
-30.9534
 20
81.7644
 11
-31.0301
 21
81.7097
  0
LINE
  8
0
 10
-31.0301
 20
81.7097
 11
-31.1143
 21
81.6677
  0
LINE
  8
0
 10
-31.1143
 20
81.6677
 11
-31.2041
 21
81.6394
  0
LINE
  8
0
 10
-31.2041
 20
81.6394
 11
-31.2973
 21
81.6255
  0
LINE
  8
0
 10
-31.2973
 20
81.6255
 11
-31.3914
 21
81.6263
  0
LINE
  8
0
 10
31.2041
 20
81.6394
 11
31.1143
 21
81.6677
  0
LINE
  8
0
 10
31.1143
 20
81.6677
 11
31.0301
 21
81.7097
  0
LINE
  8
0
 10
31.0301
 20
81.7097
 11
30.9534
 21
81.7644
  0
LINE
  8
0
 10
30.9534
 20
81.7644
 11
30.8863
 21
81.8304
  0
LINE
  8
0
 10
30.8863
 20
81.8304
 11
30.8303
 21
81.9061
  0
LINE
  8
0
 10
30.8303
 20
81.9061
 11
30.7868
 21
81.9896
  0
LINE
  8
0
 10
30.7868
 20
81.9896
 11
30.7569
 21
82.0789
  0
LINE
  8
0
 10
30.7569
 20
82.0789
 11
30.7414
 21
82.1717
  0
LINE
  8
0
 10
30.7414
 20
82.1717
 11
30.7406
 21
82.2659
  0
LINE
  8
0
 10
30.7406
 20
82.2659
 11
30.7545
 21
82.359
  0
LINE
  8
0
 10
30.7545
 20
82.359
 11
30.7828
 21
82.4488
  0
LINE
  8
0
 10
30.7828
 20
82.4488
 11
30.8248
 21
82.533
  0
LINE
  8
0
 10
30.8248
 20
82.533
 11
30.8795
 21
82.6097
  0
LINE
  8
0
 10
30.8795
 20
82.6097
 11
30.9455
 21
82.6768
  0
LINE
  8
0
 10
30.9455
 20
82.6768
 11
31.0211
 21
82.7328
  0
LINE
  8
0
 10
31.0211
 20
82.7328
 11
31.1047
 21
82.7763
  0
LINE
  8
0
 10
31.1047
 20
82.7763
 11
31.194
 21
82.8062
  0
LINE
  8
0
 10
31.194
 20
82.8062
 11
31.2868
 21
82.8217
  0
LINE
  8
0
 10
31.2868
 20
82.8217
 11
31.381
 21
82.8226
  0
LINE
  8
0
 10
31.381
 20
82.8226
 11
31.4741
 21
82.8086
  0
LINE
  8
0
 10
31.4741
 20
82.8086
 11
31.5639
 21
82.7803
  0
LINE
  8
0
 10
31.5639
 20
82.7803
 11
31.6481
 21
82.7383
  0
LINE
  8
0
 10
31.6481
 20
82.7383
 11
31.7248
 21
82.6836
  0
LINE
  8
0
 10
31.7248
 20
82.6836
 11
31.7919
 21
82.6177
  0
LINE
  8
0
 10
31.7919
 20
82.6177
 11
31.8479
 21
82.542
  0
LINE
  8
0
 10
31.8479
 20
82.542
 11
31.8914
 21
82.4585
  0
LINE
  8
0
 10
31.8914
 20
82.4585
 11
31.9213
 21
82.3692
  0
LINE
  8
0
 10
31.9213
 20
82.3692
 11
31.9368
 21
82.2763
  0
LINE
  8
0
 10
31.9368
 20
82.2763
 11
31.9377
 21
82.1822
  0
LINE
  8
0
 10
31.9377
 20
82.1822
 11
31.9237
 21
82.0891
  0
LINE
  8
0
 10
31.9237
 20
82.0891
 11
31.8954
 21
81.9993
  0
LINE
  8
0
 10
31.8954
 20
81.9993
 11
31.8534
 21
81.915
  0
LINE
  8
0
 10
31.8534
 20
81.915
 11
31.7987
 21
81.8383
  0
LINE
  8
0
 10
31.7987
 20
81.8383
 11
31.7327
 21
81.7712
  0
LINE
  8
0
 10
31.7327
 20
81.7712
 11
31.6571
 21
81.7152
  0
LINE
  8
0
 10
31.6571
 20
81.7152
 11
31.5735
 21
81.6717
  0
LINE
  8
0
 10
31.5735
 20
81.6717
 11
31.4843
 21
81.6418
  0
LINE
  8
0
 10
31.4843
 20
81.6418
 11
31.3914
 21
81.6263
  0
LINE
  8
0
 10
31.3914
 20
81.6263
 11
31.2973
 21
81.6255
  0
LINE
  8
0
 10
31.2973
 20
81.6255
 11
31.2041
 21
81.6394
  0
LINE
  8
0
 10
-9.17761
 20
-30.5677
 11
-59.6136
 21
-17.9926
  0
LINE
  8
0
 10
-59.6136
 20
-17.9926
 11
-66.4349
 21
-14.5872
  0
LINE
  8
0
 10
-66.4349
 20
-14.5872
 11
-66.0769
 21
-13.8996
  0
LINE
  8
0
 10
-66.0769
 20
-13.8996
 11
-65.828
 21
-13.1555
  0
LINE
  8
0
 10
-65.828
 20
-13.1555
 11
-65.6985
 21
-12.3817
  0
LINE
  8
0
 10
-65.6985
 20
-12.3817
 11
-65.6916
 21
-11.5971
  0
LINE
  8
0
 10
-65.6916
 20
-11.5971
 11
-65.8076
 21
-10.8212
  0
LINE
  8
0
 10
-65.8076
 20
-10.8212
 11
-66.0435
 21
-10.0729
  0
LINE
  8
0
 10
-66.0435
 20
-10.0729
 11
-66.3936
 21
-9.37074
  0
LINE
  8
0
 10
-66.3936
 20
-9.37074
 11
-66.8492
 21
-8.73199
  0
LINE
  8
0
 10
-66.8492
 20
-8.73199
 11
-67.3992
 21
-8.17238
  0
LINE
  8
0
 10
-67.3992
 20
-8.17238
 11
-68.0299
 21
-7.70569
  0
LINE
  8
0
 10
-68.0299
 20
-7.70569
 11
-68.7258
 21
-7.3434
  0
LINE
  8
0
 10
-68.7258
 20
-7.3434
 11
-69.4698
 21
-7.09445
  0
LINE
  8
0
 10
-69.4698
 20
-7.09445
 11
-70.2437
 21
-6.96495
  0
LINE
  8
0
 10
-70.2437
 20
-6.96495
 11
-71.0282
 21
-6.95811
  0
LINE
  8
0
 10
-71.0282
 20
-6.95811
 11
-71.8042
 21
-7.07408
  0
LINE
  8
0
 10
-71.8042
 20
-7.07408
 11
-72.5525
 21
-7.31001
  0
LINE
  8
0
 10
-72.5525
 20
-7.31001
 11
-73.2547
 21
-7.6601
  0
LINE
  8
0
 10
-73.2547
 20
-7.6601
 11
-73.8934
 21
-8.11571
  0
LINE
  8
0
 10
-73.8934
 20
-8.11571
 11
-74.453
 21
-8.66563
  0
LINE
  8
0
 10
-74.453
 20
-8.66563
 11
-74.9197
 21
-9.29633
  0
LINE
  8
0
 10
-74.9197
 20
-9.29633
 11
-75.282
 21
-9.99228
  0
LINE
  8
0
 10
-75.282
 20
-9.99228
 11
-75.3331
 21
-10.145
  0
LINE
  8
0
 10
-75.3331
 20
-10.145
 11
-109.587
 21
6.95557
  0
LINE
  8
0
 10
-109.587
 20
6.95557
 11
-109.489
 21
7.54399
  0
LINE
  8
0
 10
-109.489
 20
7.54399
 11
-109.482
 21
8.32855
  0
LINE
  8
0
 10
-109.482
 20
8.32855
 11
-109.598
 21
9.10452
  0
LINE
  8
0
 10
-109.598
 20
9.10452
 11
-109.834
 21
9.8528
  0
LINE
  8
0
 10
-109.834
 20
9.8528
 11
-110.184
 21
10.555
  0
LINE
  8
0
 10
-110.184
 20
10.555
 11
-110.64
 21
11.1937
  0
LINE
  8
0
 10
-110.64
 20
11.1937
 11
-111.189
 21
11.7533
  0
LINE
  8
0
 10
-111.189
 20
11.7533
 11
-111.82
 21
12.22
  0
LINE
  8
0
 10
-111.82
 20
12.22
 11
-112.516
 21
12.5823
  0
LINE
  8
0
 10
-112.516
 20
12.5823
 11
-113.26
 21
12.8313
  0
LINE
  8
0
 10
-113.26
 20
12.8313
 11
-114.034
 21
12.9607
  0
LINE
  8
0
 10
-114.034
 20
12.9607
 11
-114.819
 21
12.9676
  0
LINE
  8
0
 10
-114.819
 20
12.9676
 11
-115.595
 21
12.8516
  0
LINE
  8
0
 10
-115.595
 20
12.8516
 11
-116.343
 21
12.6157
  0
LINE
  8
0
 10
-116.343
 20
12.6157
 11
-117.045
 21
12.2656
  0
LINE
  8
0
 10
-117.045
 20
12.2656
 11
-117.684
 21
11.81
  0
LINE
  8
0
 10
-117.684
 20
11.81
 11
-118.232
 21
11.2712
  0
LINE
  8
0
 10
-118.232
 20
11.2712
 11
-129.27
 21
16.7817
  0
LINE
  8
0
 10
-129.27
 20
16.7817
 11
-116.695
 21
67.2177
  0
LINE
  8
0
 10
-116.695
 20
67.2177
 11
-35.9367
 21
76.9702
  0
LINE
  8
0
 10
-35.9367
 20
76.9702
 11
-23
 21
76.9702
  0
LINE
  8
0
 10
-23
 20
76.9702
 11
-23
 21
79
  0
LINE
  8
0
 10
-23
 20
79
 11
-14
 21
79
  0
LINE
  8
0
 10
-14
 20
79
 11
-14
 21
80
  0
LINE
  8
0
 10
-14
 20
80
 11
14
 21
80
  0
LINE
  8
0
 10
14
 20
80
 11
14
 21
79
  0
LINE
  8
0
 10
14
 20
79
 11
24
 21
79
  0
LINE
  8
0
 10
24
 20
79
 11
24
 21
76.9702
  0
LINE
  8
0
 10
24
 20
76.9702
 11
35.9367
 21
76.9702
  0
LINE
  8
0
 10
35.9367
 20
76.9702
 11
116.695
 21
67.2177
  0
LINE
  8
0
 10
116.695
 20
67.2177
 11
129.27
 21
16.7817
  0
LINE
  8
0
 10
129.27
 20
16.7817
 11
118.232
 21
11.2712
  0
LINE
  8
0
 10
118.232
 20
11.2712
 11
117.684
 21
11.81
  0
LINE
  8
0
 10
117.684
 20
11.81
 11
117.045
 21
12.2656
  0
LINE
  8
0
 10
117.045
 20
12.2656
 11
116.343
 21
12.6157
  0
LINE
  8
0
 10
116.343
 20
12.6157
 11
115.595
 21
12.8516
  0
LINE
  8
0
 10
115.595
 20
12.8516
 11
114.819
 21
12.9676
  0
LINE
  8
0
 10
114.819
 20
12.9676
 11
114.034
 21
12.9607
  0
LINE
  8
0
 10
114.034
 20
12.9607
 11
113.26
 21
12.8313
  0
LINE
  8
0
 10
113.26
 20
12.8313
 11
112.516
 21
12.5823
  0
LINE
  8
0
 10
112.516
 20
12.5823
 11
111.82
 21
12.22
  0
LINE
  8
0
 10
111.82
 20
12.22
 11
111.189
 21
11.7533
  0
LINE
  8
0
 10
111.189
 20
11.7533
 11
110.64
 21
11.1937
  0
LINE
  8
0
 10
110.64
 20
11.1937
 11
110.184
 21
10.555
  0
LINE
  8
0
 10
110.184
 20
10.555
 11
109.834
 21
9.8528
  0
LINE
  8
0
 10
109.834
 20
9.8528
 11
109.598
 21
9.10452
  0
LINE
  8
0
 10
109.598
 20
9.10452
 11
109.482
 21
8.32855
  0
LINE
  8
0
 10
109.482
 20
8.32855
 11
109.489
 21
7.54399
  0
LINE
  8
0
 10
109.489
 20
7.54399
 11
109.587
 21
6.95557
  0
LINE
  8
0
 10
109.587
 20
6.95557
 11
75.3331
 21
-10.145
  0
LINE
  8
0
 10
75.3331
 20
-10.145
 11
75.282
 21
-9.99228
  0
LINE
  8
0
 10
75.282
 20
-9.99228
 11
74.9197
 21
-9.29633
  0
LINE
  8
0
 10
74.9197
 20
-9.29633
 11
74.453
 21
-8.66563
  0
LINE
  8
0
 10
74.453
 20
-8.66563
 11
73.8934
 21
-8.11571
  0
LINE
  8
0
 10
73.8934
 20
-8.11571
 11
73.2547
 21
-7.6601
  0
LINE
  8
0
 10
73.2547
 20
-7.6601
 11
72.5525
 21
-7.31001
  0
LINE
  8
0
 10
72.5525
 20
-7.31001
 11
71.8042
 21
-7.07408
  0
LINE
  8
0
 10
71.8042
 20
-7.07408
 11
71.0282
 21
-6.95811
  0
LINE
  8
0
 10
71.0282
 20
-6.95811
 11
70.2437
 21
-6.96495
  0
LINE
  8
0
 10
70.2437
 20
-6.96495
 11
69.4698
 21
-7.09445
  0
LINE
  8
0
 10
69.4698
 20
-7.09445
 11
68.7258
 21
-7.3434
  0
LINE
  8
0
 10
68.7258
 20
-7.3434
 11
68.0299
 21
-7.70569
  0
LINE
  8
0
 10
68.0299
 20
-7.70569
 11
67.3992
 21
-8.17238
  0
LINE
  8
0
 10
67.3992
 20
-8.17238
 11
66.8492
 21
-8.73199
  0
LINE
  8
0
 10
66.8492
 20
-8.73199
 11
66.3936
 21
-9.37074
  0
LINE
  8
0
 10
66.3936
 20
-9.37074
 11
66.0435
 21
-10.0729
  0
LINE
  8
0
 10
66.0435
 20
-10.0729
 11
65.8076
 21
-10.8212
  0
LINE
  8
0
 10
65.8076
 20
-10.8212
 11
65.6916
 21
-11.5971
  0
LINE
  8
0
 10
65.6916
 20
-11.5971
 11
65.6985
 21
-12.3817
  0
LINE
  8
0
 10
65.6985
 20
-12.3817
 11
65.828
 21
-13.1555
  0
LINE
  8
0
 10
65.828
 20
-13.1555
 11
66.0769
 21
-13.8996
  0
LINE
  8
0
 10
66.0769
 20
-13.8996
 11
66.4349
 21
-14.5872
  0
LINE
  8
0
 10
66.4349
 20
-14.5872
 11
59.6136
 21
-17.9926
  0
LINE
  8
0
 10
59.6136
 20
-17.9926
 11
9.17761
 21
-30.5677
  0
LINE
  8
0
 10
9.17761
 20
-30.5677
 11
4.60573
 21
-30.5677
  0
LINE
  8
0
 10
4.60573
 20
-30.5677
 11
4.66148
 21
-30.4559
  0
LINE
  8
0
 10
4.66148
 20
-30.4559
 11
4.89742
 21
-29.7076
  0
LINE
  8
0
 10
4.89742
 20
-29.7076
 11
5.01338
 21
-28.9316
  0
LINE
  8
0
 10
5.01338
 20
-28.9316
 11
5.00655
 21
-28.1471
  0
LINE
  8
0
 10
5.00655
 20
-28.1471
 11
4.87704
 21
-27.3732
  0
LINE
  8
0
 10
4.87704
 20
-27.3732
 11
4.6281
 21
-26.6292
  0
LINE
  8
0
 10
4.6281
 20
-26.6292
 11
4.26581
 21
-25.9332
  0
LINE
  8
0
 10
4.26581
 20
-25.9332
 11
3.79912
 21
-25.3025
  0
LINE
  8
0
 10
3.79912
 20
-25.3025
 11
3.2395
 21
-24.7526
  0
LINE
  8
0
 10
3.2395
 20
-24.7526
 11
2.60075
 21
-24.297
  0
LINE
  8
0
 10
2.60075
 20
-24.297
 11
1.89861
 21
-23.9469
  0
LINE
  8
0
 10
1.89861
 20
-23.9469
 11
1.15033
 21
-23.711
  0
LINE
  8
0
 10
1.15033
 20
-23.711
 11
0.374344
 21
-23.595
  0
LINE
  8
0
 10
0.374344
 20
-23.595
 11
0
 21
-23.5983
  0
LINE
  8
0
 10
0
 20
-23.5983
 11
-0.374344
 21
-23.595
  0
LINE
  8
0
 10
-0.374344
 20
-23.595
 11
-1.15033
 21
-23.711
  0
LINE
  8
0
 10
-1.15033
 20
-23.711
 11
-1.89861
 21
-23.9469
  0
LINE
  8
0
 10
-1.89861
 20
-23.9469
 11
-2.60075
 21
-24.297
  0
LINE
  8
0
 10
-2.60075
 20
-24.297
 11
-3.2395
 21
-24.7526
  0
LINE
  8
0
 10
-3.2395
 20
-24.7526
 11
-3.79912
 21
-25.3025
  0
LINE
  8
0
 10
-3.79912
 20
-25.3025
 11
-4.26581
 21
-25.9332
  0
LINE
  8
0
 10
-4.26581
 20
-25.9332
 11
-4.6281
 21
-26.6292
  0
LINE
  8
0
 10
-4.6281
 20
-26.6292
 11
-4.87704
 21
-27.3732
  0
LINE
  8
0
 10
-4.87704
 20
-27.3732
 11
-5.00655
 21
-28.1471
  0
LINE
  8
0
 10
-5.00655
 20
-28.1471
 11
-5.01338
 21
-28.9316
  0
LINE
  8
0
 10
-5.01338
 20
-28.9316
 11
-4.89742
 21
-29.7076
  0
LINE
  8
0
 10
-4.89742
 20
-29.7076
 11
-4.66148
 21
-30.4559
  0
LINE
  8
0
 10
-4.66148
 20
-30.4559
 11
-4.60573
 21
-30.5677
  0
LINE
  8
0
 10
-4.60573
 20
-30.5677
 11
-9.17761
 21
-30.5677
  0
LINE
  8
0
 10
-104.884
 20
69.5986
 11
-104.977
 21
69.6141
  0
LINE
  8
0
 10
-104.977
 20
69.6141
 11
-105.066
 21
69.644
  0
LINE
  8
0
 10
-105.066
 20
69.644
 11
-105.15
 21
69.6874
  0
LINE
  8
0
 10
-105.15
 20
69.6874
 11
-105.226
 21
69.7434
  0
LINE
  8
0
 10
-105.226
 20
69.7434
 11
-105.292
 21
69.8106
  0
LINE
  8
0
 10
-105.292
 20
69.8106
 11
-105.346
 21
69.8872
  0
LINE
  8
0
 10
-105.346
 20
69.8872
 11
-105.388
 21
69.9715
  0
LINE
  8
0
 10
-105.388
 20
69.9715
 11
-105.417
 21
70.0613
  0
LINE
  8
0
 10
-105.417
 20
70.0613
 11
-105.43
 21
70.1544
  0
LINE
  8
0
 10
-105.43
 20
70.1544
 11
-105.43
 21
70.2486
  0
LINE
  8
0
 10
-105.43
 20
70.2486
 11
-105.414
 21
70.3414
  0
LINE
  8
0
 10
-105.414
 20
70.3414
 11
-105.384
 21
70.4307
  0
LINE
  8
0
 10
-105.384
 20
70.4307
 11
-105.341
 21
70.5142
  0
LINE
  8
0
 10
-105.341
 20
70.5142
 11
-105.285
 21
70.5899
  0
LINE
  8
0
 10
-105.285
 20
70.5899
 11
-105.218
 21
70.6559
  0
LINE
  8
0
 10
-105.218
 20
70.6559
 11
-105.141
 21
70.7106
  0
LINE
  8
0
 10
-105.141
 20
70.7106
 11
-105.057
 21
70.7526
  0
LINE
  8
0
 10
-105.057
 20
70.7526
 11
-104.967
 21
70.7809
  0
LINE
  8
0
 10
-104.967
 20
70.7809
 11
-104.874
 21
70.7948
  0
LINE
  8
0
 10
-104.874
 20
70.7948
 11
-104.78
 21
70.794
  0
LINE
  8
0
 10
-104.78
 20
70.794
 11
-104.687
 21
70.7784
  0
LINE
  8
0
 10
-104.687
 20
70.7784
 11
-104.598
 21
70.7486
  0
LINE
  8
0
 10
-104.598
 20
70.7486
 11
-104.514
 21
70.7051
  0
LINE
  8
0
 10
-104.514
 20
70.7051
 11
-104.438
 21
70.6491
  0
LINE
  8
0
 10
-104.438
 20
70.6491
 11
-104.372
 21
70.5819
  0
LINE
  8
0
 10
-104.372
 20
70.5819
 11
-104.318
 21
70.5053
  0
LINE
  8
0
 10
-104.318
 20
70.5053
 11
-104.276
 21
70.421
  0
LINE
  8
0
 10
-104.276
 20
70.421
 11
-104.247
 21
70.3312
  0
LINE
  8
0
 10
-104.247
 20
70.3312
 11
-104.233
 21
70.2381
  0
LINE
  8
0
 10
-104.233
 20
70.2381
 11
-104.234
 21
70.144
  0
LINE
  8
0
 10
-104.234
 20
70.144
 11
-104.25
 21
70.0511
  0
LINE
  8
0
 10
-104.25
 20
70.0511
 11
-104.28
 21
69.9618
  0
LINE
  8
0
 10
-104.28
 20
69.9618
 11
-104.323
 21
69.8783
  0
LINE
  8
0
 10
-104.323
 20
69.8783
 11
-104.379
 21
69.8026
  0
LINE
  8
0
 10
-104.379
 20
69.8026
 11
-104.446
 21
69.7366
  0
LINE
  8
0
 10
-104.446
 20
69.7366
 11
-104.523
 21
69.682
  0
LINE
  8
0
 10
-104.523
 20
69.682
 11
-104.607
 21
69.64
  0
LINE
  8
0
 10
-104.607
 20
69.64
 11
-104.697
 21
69.6116
  0
LINE
  8
0
 10
-104.697
 20
69.6116
 11
-104.79
 21
69.5977
  0
LINE
  8
0
 10
-104.79
 20
69.5977
 11
-104.884
 21
69.5986
  0
LINE
  8
0
 10
104.697
 20
69.6116
 11
104.607
 21
69.64
  0
LINE
  8
0
 10
104.607
 20
69.64
 11
104.523
 21
69.682
  0
LINE
  8
0
 10
104.523
 20
69.682
 11
104.446
 21
69.7366
  0
LINE
  8
0
 10
104.446
 20
69.7366
 11
104.379
 21
69.8026
  0
LINE
  8
0
 10
104.379
 20
69.8026
 11
104.323
 21
69.8783
  0
LINE
  8
0
 10
104.323
 20
69.8783
 11
104.28
 21
69.9618
  0
LINE
  8
0
 10
104.28
 20
69.9618
 11
104.25
 21
70.0511
  0
LINE
  8
0
 10
104.25
 20
70.0511
 11
104.234
 21
70.144
  0
LINE
  8
0
 10
104.234
 20
70.144
 11
104.233
 21
70.2381
  0
LINE
  8
0
 10
104.233
 20
70.2381
 11
104.247
 21
70.3312
  0
LINE
  8
0
 10
104.247
 20
70.3312
 11
104.276
 21
70.421
  0
LINE
  8
0
 10
104.276
 20
70.421
 11
104.318
 21
70.5053
  0
LINE
  8
0
 10
104.318
 20
70.5053
 11
104.372
 21
70.5819
  0
LINE
  8
0
 10
104.372
 20
70.5819
 11
104.438
 21
70.6491
  0
LINE
  8
0
 10
104.438
 20
70.6491
 11
104.514
 21
70.7051
  0
LINE
  8
0
 10
104.514
 20
70.7051
 11
104.598
 21
70.7486
  0
LINE
  8
0
 10
104.598
 20
70.7486
 11
104.687
 21
70.7784
  0
LINE
  8
0
 10
104.687
 20
70.7784
 11
104.78
 21
70.794
  0
LINE
  8
0
 10
104.78
 20
70.794
 11
104.874
 21
70.7948
  0
LINE
  8
0
 10
104.874
 20
70.7948
 11
104.967
 21
70.7809
  0
LINE
  8
0
 10
104.967
 20
70.7809
 11
105.057
 21
70.7526
  0
LINE
  8
0
 10
105.057
 20
70.7526
 11
105.141
 21
70.7106
  0
LINE
  8
0
 10
105.141
 20
70.7106
 11
105.218
 21
70.6559
  0
LINE
  8
0
 10
105.218
 20
70.6559
 11
105.285
 21
70.5899
  0
LINE
  8
0
 10
105.285
 20
70.5899
 11
105.341
 21
70.5142
  0
LINE
  8
0
 10
105.341
 20
70.5142
 11
105.384
 21
70.4307
  0
LINE
  8
0
 10
105.384
 20
70.4307
 11
105.414
 21
70.3414
  0
LINE
  8
0
 10
105.414
 20
70.3414
 11
105.43
 21
70.2486
  0
LINE
  8
0
 10
105.43
 20
70.2486
 11
105.43
 21
70.1544
  0
LINE
  8
0
 10
105.43
 20
70.1544
 11
105.417
 21
70.0613
  0
LINE
  8
0
 10
105.417
 20
70.0613
 11
105.388
 21
69.9715
  0
LINE
  8
0
 10
105.388
 20
69.9715
 11
105.346
 21
69.8872
  0
LINE
  8
0
 10
105.346
 20
69.8872
 11
105.292
 21
69.8106
  0
LINE
  8
0
 10
105.292
 20
69.8106
 11
105.226
 21
69.7434
  0
LINE
  8
0
 10
105.226
 20
69.7434
 11
105.15
 21
69.6874
  0
LINE
  8
0
 10
105.15
 20
69.6874
 11
105.066
 21
69.644
  0
LINE
  8
0
 10
105.066
 20
69.644
 11
104.977
 21
69.6141
  0
LINE
  8
0
 10
104.977
 20
69.6141
 11
104.884
 21
69.5986
  0
LINE
  8
0
 10
104.884
 20
69.5986
 11
104.79
 21
69.5977
  0
LINE
  8
0
 10
104.79
 20
69.5977
 11
104.697
 21
69.6116
  0
LINE
  8
0
 10
-114.522
 20
7.38205
 11
-114.615
 21
7.39758
  0
LINE
  8
0
 10
-114.615
 20
7.39758
 11
-114.704
 21
7.42746
  0
LINE
  8
0
 10
-114.704
 20
7.42746
 11
-114.788
 21
7.47093
  0
LINE
  8
0
 10
-114.788
 20
7.47093
 11
-114.863
 21
7.52695
  0
LINE
  8
0
 10
-114.863
 20
7.52695
 11
-114.929
 21
7.5941
  0
LINE
  8
0
 10
-114.929
 20
7.5941
 11
-114.984
 21
7.67075
  0
LINE
  8
0
 10
-114.984
 20
7.67075
 11
-115.026
 21
7.755
  0
LINE
  8
0
 10
-115.026
 20
7.755
 11
-115.054
 21
7.8448
  0
LINE
  8
0
 10
-115.054
 20
7.8448
 11
-115.068
 21
7.93791
  0
LINE
  8
0
 10
-115.068
 20
7.93791
 11
-115.067
 21
8.03206
  0
LINE
  8
0
 10
-115.067
 20
8.03206
 11
-115.052
 21
8.12492
  0
LINE
  8
0
 10
-115.052
 20
8.12492
 11
-115.022
 21
8.2142
  0
LINE
  8
0
 10
-115.022
 20
8.2142
 11
-114.979
 21
8.29771
  0
LINE
  8
0
 10
-114.979
 20
8.29771
 11
-114.923
 21
8.3734
  0
LINE
  8
0
 10
-114.923
 20
8.3734
 11
-114.855
 21
8.43939
  0
LINE
  8
0
 10
-114.855
 20
8.43939
 11
-114.779
 21
8.49406
  0
LINE
  8
0
 10
-114.779
 20
8.49406
 11
-114.695
 21
8.53607
  0
LINE
  8
0
 10
-114.695
 20
8.53607
 11
-114.605
 21
8.56439
  0
LINE
  8
0
 10
-114.605
 20
8.56439
 11
-114.512
 21
8.57831
  0
LINE
  8
0
 10
-114.512
 20
8.57831
 11
-114.417
 21
8.57748
  0
LINE
  8
0
 10
-114.417
 20
8.57748
 11
-114.325
 21
8.56195
  0
LINE
  8
0
 10
-114.325
 20
8.56195
 11
-114.235
 21
8.53207
  0
LINE
  8
0
 10
-114.235
 20
8.53207
 11
-114.152
 21
8.4886
  0
LINE
  8
0
 10
-114.152
 20
8.4886
 11
-114.076
 21
8.43259
  0
LINE
  8
0
 10
-114.076
 20
8.43259
 11
-114.01
 21
8.36543
  0
LINE
  8
0
 10
-114.01
 20
8.36543
 11
-113.955
 21
8.28879
  0
LINE
  8
0
 10
-113.955
 20
8.28879
 11
-113.913
 21
8.20453
  0
LINE
  8
0
 10
-113.913
 20
8.20453
 11
-113.885
 21
8.11473
  0
LINE
  8
0
 10
-113.885
 20
8.11473
 11
-113.871
 21
8.02162
  0
LINE
  8
0
 10
-113.871
 20
8.02162
 11
-113.872
 21
7.92747
  0
LINE
  8
0
 10
-113.872
 20
7.92747
 11
-113.888
 21
7.83461
  0
LINE
  8
0
 10
-113.888
 20
7.83461
 11
-113.917
 21
7.74533
  0
LINE
  8
0
 10
-113.917
 20
7.74533
 11
-113.961
 21
7.66182
  0
LINE
  8
0
 10
-113.961
 20
7.66182
 11
-114.017
 21
7.58614
  0
LINE
  8
0
 10
-114.017
 20
7.58614
 11
-114.084
 21
7.52014
  0
LINE
  8
0
 10
-114.084
 20
7.52014
 11
-114.161
 21
7.46547
  0
LINE
  8
0
 10
-114.161
 20
7.46547
 11
-114.245
 21
7.42346
  0
LINE
  8
0
 10
-114.245
 20
7.42346
 11
-114.335
 21
7.39514
  0
LINE
  8
0
 10
-114.335
 20
7.39514
 11
-114.428
 21
7.38123
  0
LINE
  8
0
 10
-114.428
 20
7.38123
 11
-114.522
 21
7.38205
  0
LINE
  8
0
 10
114.335
 20
7.39514
 11
114.245
 21
7.42346
  0
LINE
  8
0
 10
114.245
 20
7.42346
 11
114.161
 21
7.46547
  0
LINE
  8
0
 10
114.161
 20
7.46547
 11
114.084
 21
7.52014
  0
LINE
  8
0
 10
114.084
 20
7.52014
 11
114.017
 21
7.58614
  0
LINE
  8
0
 10
114.017
 20
7.58614
 11
113.961
 21
7.66182
  0
LINE
  8
0
 10
113.961
 20
7.66182
 11
113.917
 21
7.74533
  0
LINE
  8
0
 10
113.917
 20
7.74533
 11
113.888
 21
7.83461
  0
LINE
  8
0
 10
113.888
 20
7.83461
 11
113.872
 21
7.92747
  0
LINE
  8
0
 10
113.872
 20
7.92747
 11
113.871
 21
8.02162
  0
LINE
  8
0
 10
113.871
 20
8.02162
 11
113.885
 21
8.11473
  0
LINE
  8
0
 10
113.885
 20
8.11473
 11
113.913
 21
8.20453
  0
LINE
  8
0
 10
113.913
 20
8.20453
 11
113.955
 21
8.28879
  0
LINE
  8
0
 10
113.955
 20
8.28879
 11
114.01
 21
8.36543
  0
LINE
  8
0
 10
114.01
 20
8.36543
 11
114.076
 21
8.43259
  0
LINE
  8
0
 10
114.076
 20
8.43259
 11
114.152
 21
8.4886
  0
LINE
  8
0
 10
114.152
 20
8.4886
 11
114.235
 21
8.53207
  0
LINE
  8
0
 10
114.235
 20
8.53207
 11
114.325
 21
8.56195
  0
LINE
  8
0
 10
114.325
 20
8.56195
 11
114.417
 21
8.57748
  0
LINE
  8
0
 10
114.417
 20
8.57748
 11
114.512
 21
8.57831
  0
LINE
  8
0
 10
114.512
 20
8.57831
 11
114.605
 21
8.56439
  0
LINE
  8
0
 10
114.605
 20
8.56439
 11
114.695
 21
8.53607
  0
LINE
  8
0
 10
114.695
 20
8.53607
 11
114.779
 21
8.49406
  0
LINE
  8
0
 10
114.779
 20
8.49406
 11
114.855
 21
8.43939
  0
LINE
  8
0
 10
114.855
 20
8.43939
 11
114.923
 21
8.3734
  0
LINE
  8
0
 10
114.923
 20
8.3734
 11
114.979
 21
8.29771
  0
LINE
  8
0
 10
114.979
 20
8.29771
 11
115.022
 21
8.2142
  0
LINE
  8
0
 10
115.022
 20
8.2142
 11
115.052
 21
8.12492
  0
LINE
  8
0
 10
115.052
 20
8.12492
 11
115.067
 21
8.03206
  0
LINE
  8
0
 10
115.067
 20
8.03206
 11
115.068
 21
7.93791
  0
LINE
  8
0
 10
115.068
 20
7.93791
 11
115.054
 21
7.8448
  0
LINE
  8
0
 10
115.054
 20
7.8448
 11
115.026
 21
7.755
  0
LINE
  8
0
 10
115.026
 20
7.755
 11
114.984
 21
7.67075
  0
LINE
  8
0
 10
114.984
 20
7.67075
 11
114.929
 21
7.5941
  0
LINE
  8
0
 10
114.929
 20
7.5941
 11
114.863
 21
7.52695
  0
LINE
  8
0
 10
114.863
 20
7.52695
 11
114.788
 21
7.47093
  0
LINE
  8
0
 10
114.788
 20
7.47093
 11
114.704
 21
7.42746
  0
LINE
  8
0
 10
114.704
 20
7.42746
 11
114.615
 21
7.39758
  0
LINE
  8
0
 10
114.615
 20
7.39758
 11
114.522
 21
7.38205
  0
LINE
  8
0
 10
114.522
 20
7.38205
 11
114.428
 21
7.38123
  0
LINE
  8
0
 10
114.428
 20
7.38123
 11
114.335
 21
7.39514
  0
LINE
  8
0
 10
-70.7318
 20
-12.5436
 11
-70.8246
 21
-12.5281
  0
LINE
  8
0
 10
-70.8246
 20
-12.5281
 11
-70.9139
 21
-12.4982
  0
LINE
  8
0
 10
-70.9139
 20
-12.4982
 11
-70.9974
 21
-12.4548
  0
LINE
  8
0
 10
-70.9974
 20
-12.4548
 11
-71.0731
 21
-12.3988
  0
LINE
  8
0
 10
-71.0731
 20
-12.3988
 11
-71.1391
 21
-12.3316
  0
LINE
  8
0
 10
-71.1391
 20
-12.3316
 11
-71.1938
 21
-12.2549
  0
LINE
  8
0
 10
-71.1938
 20
-12.2549
 11
-71.2358
 21
-12.1707
  0
LINE
  8
0
 10
-71.2358
 20
-12.1707
 11
-71.2641
 21
-12.0809
  0
LINE
  8
0
 10
-71.2641
 20
-12.0809
 11
-71.278
 21
-11.9878
  0
LINE
  8
0
 10
-71.278
 20
-11.9878
 11
-71.2772
 21
-11.8936
  0
LINE
  8
0
 10
-71.2772
 20
-11.8936
 11
-71.2616
 21
-11.8008
  0
LINE
  8
0
 10
-71.2616
 20
-11.8008
 11
-71.2318
 21
-11.7115
  0
LINE
  8
0
 10
-71.2318
 20
-11.7115
 11
-71.1883
 21
-11.628
  0
LINE
  8
0
 10
-71.1883
 20
-11.628
 11
-71.1323
 21
-11.5523
  0
LINE
  8
0
 10
-71.1323
 20
-11.5523
 11
-71.0651
 21
-11.4863
  0
LINE
  8
0
 10
-71.0651
 20
-11.4863
 11
-70.9885
 21
-11.4316
  0
LINE
  8
0
 10
-70.9885
 20
-11.4316
 11
-70.9042
 21
-11.3896
  0
LINE
  8
0
 10
-70.9042
 20
-11.3896
 11
-70.8144
 21
-11.3613
  0
LINE
  8
0
 10
-70.8144
 20
-11.3613
 11
-70.7213
 21
-11.3474
  0
LINE
  8
0
 10
-70.7213
 20
-11.3474
 11
-70.6272
 21
-11.3482
  0
LINE
  8
0
 10
-70.6272
 20
-11.3482
 11
-70.5343
 21
-11.3638
  0
LINE
  8
0
 10
-70.5343
 20
-11.3638
 11
-70.445
 21
-11.3936
  0
LINE
  8
0
 10
-70.445
 20
-11.3936
 11
-70.3615
 21
-11.4371
  0
LINE
  8
0
 10
-70.3615
 20
-11.4371
 11
-70.2858
 21
-11.4931
  0
LINE
  8
0
 10
-70.2858
 20
-11.4931
 11
-70.2198
 21
-11.5603
  0
LINE
  8
0
 10
-70.2198
 20
-11.5603
 11
-70.1652
 21
-11.6369
  0
LINE
  8
0
 10
-70.1652
 20
-11.6369
 11
-70.1232
 21
-11.7212
  0
LINE
  8
0
 10
-70.1232
 20
-11.7212
 11
-70.0948
 21
-11.811
  0
LINE
  8
0
 10
-70.0948
 20
-11.811
 11
-70.0809
 21
-11.9041
  0
LINE
  8
0
 10
-70.0809
 20
-11.9041
 11
-70.0817
 21
-11.9982
  0
LINE
  8
0
 10
-70.0817
 20
-11.9982
 11
-70.0973
 21
-12.0911
  0
LINE
  8
0
 10
-70.0973
 20
-12.0911
 11
-70.1272
 21
-12.1804
  0
LINE
  8
0
 10
-70.1272
 20
-12.1804
 11
-70.1706
 21
-12.2639
  0
LINE
  8
0
 10
-70.1706
 20
-12.2639
 11
-70.2266
 21
-12.3396
  0
LINE
  8
0
 10
-70.2266
 20
-12.3396
 11
-70.2938
 21
-12.4055
  0
LINE
  8
0
 10
-70.2938
 20
-12.4055
 11
-70.3704
 21
-12.4602
  0
LINE
  8
0
 10
-70.3704
 20
-12.4602
 11
-70.4547
 21
-12.5022
  0
LINE
  8
0
 10
-70.4547
 20
-12.5022
 11
-70.5445
 21
-12.5305
  0
LINE
  8
0
 10
-70.5445
 20
-12.5305
 11
-70.6376
 21
-12.5445
  0
LINE
  8
0
 10
-70.6376
 20
-12.5445
 11
-70.7318
 21
-12.5436
  0
LINE
  8
0
 10
70.5445
 20
-12.5305
 11
70.4547
 21
-12.5022
  0
LINE
  8
0
 10
70.4547
 20
-12.5022
 11
70.3704
 21
-12.4602
  0
LINE
  8
0
 10
70.3704
 20
-12.4602
 11
70.2938
 21
-12.4055
  0
LINE
  8
0
 10
70.2938
 20
-12.4055
 11
70.2266
 21
-12.3396
  0
LINE
  8
0
 10
70.2266
 20
-12.3396
 11
70.1706
 21
-12.2639
  0
LINE
  8
0
 10
70.1706
 20
-12.2639
 11
70.1272
 21
-12.1804
  0
LINE
  8
0
 10
70.1272
 20
-12.1804
 11
70.0973
 21
-12.0911
  0
LINE
  8
0
 10
70.0973
 20
-12.0911
 11
70.0817
 21
-11.9982
  0
LINE
  8
0
 10
70.0817
 20
-11.9982
 11
70.0809
 21
-11.9041
  0
LINE
  8
0
 10
70.0809
 20
-11.9041
 11
70.0948
 21
-11.811
  0
LINE
  8
0
 10
70.0948
 20
-11.811
 11
70.1232
 21
-11.7212
  0
LINE
  8
0
 10
70.1232
 20
-11.7212
 11
70.1652
 21
-11.6369
  0
LINE
  8
0
 10
70.1652
 20
-11.6369
 11
70.2198
 21
-11.5603
  0
LINE
  8
0
 10
70.2198
 20
-11.5603
 11
70.2858
 21
-11.4931
  0
LINE
  8
0
 10
70.2858
 20
-11.4931
 11
70.3615
 21
-11.4371
  0
LINE
  8
0
 10
70.3615
 20
-11.4371
 11
70.445
 21
-11.3936
  0
LINE
  8
0
 10
70.445
 20
-11.3936
 11
70.5343
 21
-11.3638
  0
LINE
  8
0
 10
70.5343
 20
-11.3638
 11
70.6272
 21
-11.3482
  0
LINE
  8
0
 10
70.6272
 20
-11.3482
 11
70.7213
 21
-11.3474
  0
LINE
  8
0
 10
70.7213
 20
-11.3474
 11
70.8144
 21
-11.3613
  0
LINE
  8
0
 10
70.8144
 20
-11.3613
 11
70.9042
 21
-11.3896
  0
LINE
  8
0
 10
70.9042
 20
-11.3896
 11
70.9885
 21
-11.4316
  0
LINE
  8
0
 10
70.9885
 20
-11.4316
 11
71.0651
 21
-11.4863
  0
LINE
  8
0
 10
71.0651
 20
-11.4863
 11
71.1323
 21
-11.5523
  0
LINE
  8
0
 10
71.1323
 20
-11.5523
 11
71.1883
 21
-11.628
  0
LINE
  8
0
 10
71.1883
 20
-11.628
 11
71.2318
 21
-11.7115
  0
LINE
  8
0
 10
71.2318
 20
-11.7115
 11
71.2616
 21
-11.8008
  0
LINE
  8
0
 10
71.2616
 20
-11.8008
 11
71.2772
 21
-11.8936
  0
LINE
  8
0
 10
71.2772
 20
-11.8936
 11
71.278
 21
-11.9878
  0
LINE
  8
0
 10
71.278
 20
-11.9878
 11
71.2641
 21
-12.0809
  0
LINE
  8
0
 10
71.2641
 20
-12.0809
 11
71.2358
 21
-12.1707
  0
LINE
  8
0
 10
71.2358
 20
-12.1707
 11
71.1938
 21
-12.2549
  0
LINE
  8
0
 10
71.1938
 20
-12.2549
 11
71.1391
 21
-12.3316
  0
LINE
  8
0
 10
71.1391
 20
-12.3316
 11
71.0731
 21
-12.3988
  0
LINE
  8
0
 10
71.0731
 20
-12.3988
 11
70.9974
 21
-12.4548
  0
LINE
  8
0
 10
70.9974
 20
-12.4548
 11
70.9139
 21
-12.4982
  0
LINE
  8
0
 10
70.9139
 20
-12.4982
 11
70.8246
 21
-12.5281
  0
LINE
  8
0
 10
70.8246
 20
-12.5281
 11
70.7318
 21
-12.5436
  0
LINE
  8
0
 10
70.7318
 20
-12.5436
 11
70.6376
 21
-12.5445
  0
LINE
  8
0
 10
70.6376
 20
-12.5445
 11
70.5445
 21
-12.5305
  0
LINE
  8
0
 10
0
 20
-29.1812
 11
-0.0162659
 21
-29.1814
  0
LINE
  8
0
 10
-0.0162659
 20
-29.1814
 11
-0.01828
 21
-29.1811
  0
LINE
  8
0
 10
-0.01828
 20
-29.1811
 11
-0.0778656
 21
-29.1806
  0
LINE
  8
0
 10
-0.0778656
 20
-29.1806
 11
-0.170715
 21
-29.165
  0
LINE
  8
0
 10
-0.170715
 20
-29.165
 11
-0.26001
 21
-29.1351
  0
LINE
  8
0
 10
-0.26001
 20
-29.1351
 11
-0.343521
 21
-29.0917
  0
LINE
  8
0
 10
-0.343521
 20
-29.0917
 11
-0.419205
 21
-29.0357
  0
LINE
  8
0
 10
-0.419205
 20
-29.0357
 11
-0.485199
 21
-28.9685
  0
LINE
  8
0
 10
-0.485199
 20
-28.9685
 11
-0.539871
 21
-28.8919
  0
LINE
  8
0
 10
-0.539871
 20
-28.8919
 11
-0.581879
 21
-28.8076
  0
LINE
  8
0
 10
-0.581879
 20
-28.8076
 11
-0.610184
 21
-28.7178
  0
LINE
  8
0
 10
-0.610184
 20
-28.7178
 11
-0.6241
 21
-28.6247
  0
LINE
  8
0
 10
-0.6241
 20
-28.6247
 11
-0.623291
 21
-28.5305
  0
LINE
  8
0
 10
-0.623291
 20
-28.5305
 11
-0.607742
 21
-28.4377
  0
LINE
  8
0
 10
-0.607742
 20
-28.4377
 11
-0.577866
 21
-28.3484
  0
LINE
  8
0
 10
-0.577866
 20
-28.3484
 11
-0.534393
 21
-28.2649
  0
LINE
  8
0
 10
-0.534393
 20
-28.2649
 11
-0.478394
 21
-28.1892
  0
LINE
  8
0
 10
-0.478394
 20
-28.1892
 11
-0.41124
 21
-28.1232
  0
LINE
  8
0
 10
-0.41124
 20
-28.1232
 11
-0.334595
 21
-28.0685
  0
LINE
  8
0
 10
-0.334595
 20
-28.0685
 11
-0.250336
 21
-28.0265
  0
LINE
  8
0
 10
-0.250336
 20
-28.0265
 11
-0.160538
 21
-27.9982
  0
LINE
  8
0
 10
-0.160538
 20
-27.9982
 11
-0.0674286
 21
-27.9843
  0
LINE
  8
0
 10
-0.0674286
 20
-27.9843
 11
0
 21
-27.9849
  0
LINE
  8
0
 10
0
 20
-27.9849
 11
0.0674286
 21
-27.9843
  0
LINE
  8
0
 10
0.0674286
 20
-27.9843
 11
0.160538
 21
-27.9982
  0
LINE
  8
0
 10
0.160538
 20
-27.9982
 11
0.250336
 21
-28.0265
  0
LINE
  8
0
 10
0.250336
 20
-28.0265
 11
0.334595
 21
-28.0685
  0
LINE
  8
0
 10
0.334595
 20
-28.0685
 11
0.41124
 21
-28.1232
  0
LINE
  8
0
 10
0.41124
 20
-28.1232
 11
0.478394
 21
-28.1892
  0
LINE
  8
0
 10
0.478394
 20
-28.1892
 11
0.534393
 21
-28.2649
  0
LINE
  8
0
 10
0.534393
 20
-28.2649
 11
0.577866
 21
-28.3484
  0
LINE
  8
0
 10
0.577866
 20
-28.3484
 11
0.607742
 21
-28.4377
  0
LINE
  8
0
 10
0.607742
 20
-28.4377
 11
0.623291
 21
-28.5305
  0
LINE
  8
0
 10
0.623291
 20
-28.5305
 11
0.6241
 21
-28.6247
  0
LINE
  8
0
 10
0.6241
 20
-28.6247
 11
0.610184
 21
-28.7178
  0
LINE
  8
0
 10
0.610184
 20
-28.7178
 11
0.581879
 21
-28.8076
  0
LINE
  8
0
 10
0.581879
 20
-28.8076
 11
0.539871
 21
-28.8919
  0
LINE
  8
0
 10
0.539871
 20
-28.8919
 11
0.485199
 21
-28.9685
  0
LINE
  8
0
 10
0.485199
 20
-28.9685
 11
0.419205
 21
-29.0357
  0
LINE
  8
0
 10
0.419205
 20
-29.0357
 11
0.343521
 21
-29.0917
  0
LINE
  8
0
 10
0.343521
 20
-29.0917
 11
0.26001
 21
-29.1351
  0
LINE
  8
0
 10
0.26001
 20
-29.1351
 11
0.170715
 21
-29.165
  0
LINE
  8
0
 10
0.170715
 20
-29.165
 11
0.0778656
 21
-29.1806
  0
LINE
  8
0
 10
0.0778656
 20
-29.1806
 11
0.01828
 21
-29.1811
  0
LINE
  8
0
 10
0.01828
 20
-29.1811
 11
0.0162659
 21
-29.1814
  0
LINE
  8
0
 10
0.0162659
 20
-29.1814
 11
0
 21
-29.1812
  0
ENDSEC
  0
SECTION
  2
OBJECTS
  0
DICTIONARY
  0
ENDSEC
  0
EOF
