  0
SECTION
  2
BLOCKS
  0
ENDSEC
  0
SECTION
  2
ENTITIES
  0
LINE
  8
0
 10
5.52846
 20
-36.6409
 11
65.6868
 21
-21.6418
  0
LINE
  8
0
 10
65.6868
 20
-21.6418
 11
135.343
 21
13.1326
  0
LINE
  8
0
 10
135.343
 20
13.1326
 11
120.344
 21
73.2909
  0
LINE
  8
0
 10
120.344
 20
73.2909
 11
25
 21
88.005
  0
LINE
  8
0
 10
25
 20
88.005
 11
-25
 21
88.005
  0
LINE
  8
0
 10
-25
 20
88.005
 11
-120.344
 21
73.2909
  0
LINE
  8
0
 10
-120.344
 20
73.2909
 11
-135.343
 21
13.1326
  0
LINE
  8
0
 10
-135.343
 20
13.1326
 11
-65.6868
 21
-21.6418
  0
LINE
  8
0
 10
-65.6868
 20
-21.6418
 11
-5.52846
 21
-36.6409
  0
LINE
  8
0
 10
-5.52846
 20
-36.6409
 11
-0.00498962
 21
-38
  0
LINE
  8
0
 10
-0.00498962
 20
-38
 11
0.00498962
 21
-38
  0
LINE
  8
0
 10
0.00498962
 20
-38
 11
5.52846
 21
-36.6409
  0
LINE
  8
0
 10
-7.1673
 20
-33.9134
 11
-62.9593
 21
-20.0029
  0
LINE
  8
0
 10
-62.9593
 20
-20.0029
 11
-59.8143
 21
-7.38908
  0
LINE
  8
0
 10
-59.8143
 20
-7.38908
 11
-78.2499
 21
-2.79257
  0
LINE
  8
0
 10
-78.2499
 20
-2.79257
 11
-74.1639
 21
13.5957
  0
LINE
  8
0
 10
-74.1639
 20
13.5957
 11
-92.1143
 21
18.0713
  0
LINE
  8
0
 10
-92.1143
 20
18.0713
 11
-94.5336
 21
8.3683
  0
LINE
  8
0
 10
-94.5336
 20
8.3683
 11
-112.969
 21
12.9648
  0
LINE
  8
0
 10
-112.969
 20
12.9648
 11
-113.695
 21
10.0539
  0
LINE
  8
0
 10
-113.695
 20
10.0539
 11
-132.616
 21
14.7714
  0
LINE
  8
0
 10
-132.616
 20
14.7714
 11
-118.705
 21
70.5634
  0
LINE
  8
0
 10
-118.705
 20
70.5634
 11
-100.27
 21
65.9669
  0
LINE
  8
0
 10
-100.27
 20
65.9669
 11
-99.5438
 21
68.8778
  0
LINE
  8
0
 10
-99.5438
 20
68.8778
 11
-81.1082
 21
64.2813
  0
LINE
  8
0
 10
-81.1082
 20
64.2813
 11
-78.689
 21
73.9842
  0
LINE
  8
0
 10
-78.689
 20
73.9842
 11
-60.2534
 21
69.3877
  0
LINE
  8
0
 10
-60.2534
 20
69.3877
 11
-59.0438
 21
74.2392
  0
LINE
  8
0
 10
-59.0438
 20
74.2392
 11
-40.6081
 21
69.6427
  0
LINE
  8
0
 10
-40.6081
 20
69.6427
 11
-37.947
 21
80.3159
  0
LINE
  8
0
 10
-37.947
 20
80.3159
 11
-19.0262
 21
75.5984
  0
LINE
  8
0
 10
-19.0262
 20
75.5984
 11
-24.1066
 21
55.2222
  0
LINE
  8
0
 10
-24.1066
 20
55.2222
 11
-5.67097
 21
50.6257
  0
LINE
  8
0
 10
-5.67097
 20
50.6257
 11
-19.5815
 21
-5.16626
  0
LINE
  8
0
 10
-19.5815
 20
-5.16626
 11
-38.5022
 21
-0.448792
  0
LINE
  8
0
 10
-38.5022
 20
-0.448792
 11
-38.0184
 21
1.49179
  0
LINE
  8
0
 10
-38.0184
 20
1.49179
 11
-55.9689
 21
5.96735
  0
LINE
  8
0
 10
-55.9689
 20
5.96735
 11
-57.7567
 21
-1.20312
  0
LINE
  8
0
 10
-57.7567
 20
-1.20312
 11
-2.44981
 21
-14.9927
  0
LINE
  8
0
 10
-2.44981
 20
-14.9927
 11
-7.1673
 21
-33.9134
  0
LINE
  8
0
 10
-54.5186
 20
13.8507
 11
-72.4691
 21
18.3262
  0
LINE
  8
0
 10
-72.4691
 20
18.3262
 11
-73.0473
 21
16.0072
  0
LINE
  8
0
 10
-73.0473
 20
16.0072
 11
-55.0968
 21
11.5317
  0
LINE
  8
0
 10
-55.0968
 20
11.5317
 11
-54.5186
 21
13.8507
  0
LINE
  8
0
 10
2.44981
 20
-14.9927
 11
57.7567
 21
-1.20312
  0
LINE
  8
0
 10
57.7567
 20
-1.20312
 11
55.9689
 21
5.96735
  0
LINE
  8
0
 10
55.9689
 20
5.96735
 11
38.0184
 21
1.49179
  0
LINE
  8
0
 10
38.0184
 20
1.49179
 11
38.5022
 21
-0.448792
  0
LINE
  8
0
 10
38.5022
 20
-0.448792
 11
19.5815
 21
-5.16626
  0
LINE
  8
0
 10
19.5815
 20
-5.16626
 11
5.67097
 21
50.6257
  0
LINE
  8
0
 10
5.67097
 20
50.6257
 11
24.1066
 21
55.2222
  0
LINE
  8
0
 10
24.1066
 20
55.2222
 11
19.0262
 21
75.5984
  0
LINE
  8
0
 10
19.0262
 20
75.5984
 11
37.947
 21
80.3159
  0
LINE
  8
0
 10
37.947
 20
80.3159
 11
40.6081
 21
69.6427
  0
LINE
  8
0
 10
40.6081
 20
69.6427
 11
59.0438
 21
74.2392
  0
LINE
  8
0
 10
59.0438
 20
74.2392
 11
60.2534
 21
69.3877
  0
LINE
  8
0
 10
60.2534
 20
69.3877
 11
78.689
 21
73.9842
  0
LINE
  8
0
 10
78.689
 20
73.9842
 11
81.1082
 21
64.2813
  0
LINE
  8
0
 10
81.1082
 20
64.2813
 11
99.5438
 21
68.8778
  0
LINE
  8
0
 10
99.5438
 20
68.8778
 11
100.27
 21
65.9669
  0
LINE
  8
0
 10
100.27
 20
65.9669
 11
118.705
 21
70.5634
  0
LINE
  8
0
 10
118.705
 20
70.5634
 11
132.616
 21
14.7714
  0
LINE
  8
0
 10
132.616
 20
14.7714
 11
113.695
 21
10.0539
  0
LINE
  8
0
 10
113.695
 20
10.0539
 11
112.969
 21
12.9648
  0
LINE
  8
0
 10
112.969
 20
12.9648
 11
94.5336
 21
8.3683
  0
LINE
  8
0
 10
94.5336
 20
8.3683
 11
92.1143
 21
18.0713
  0
LINE
  8
0
 10
92.1143
 20
18.0713
 11
74.1639
 21
13.5957
  0
LINE
  8
0
 10
74.1639
 20
13.5957
 11
78.2499
 21
-2.79257
  0
LINE
  8
0
 10
78.2499
 20
-2.79257
 11
59.8143
 21
-7.38908
  0
LINE
  8
0
 10
59.8143
 20
-7.38908
 11
62.9593
 21
-20.0029
  0
LINE
  8
0
 10
62.9593
 20
-20.0029
 11
7.1673
 21
-33.9134
  0
LINE
  8
0
 10
7.1673
 20
-33.9134
 11
2.44981
 21
-14.9927
  0
LINE
  8
0
 10
73.0473
 20
16.0072
 11
72.4691
 21
18.3262
  0
LINE
  8
0
 10
72.4691
 20
18.3262
 11
54.5186
 21
13.8507
  0
LINE
  8
0
 10
54.5186
 20
13.8507
 11
55.0968
 21
11.5317
  0
LINE
  8
0
 10
55.0968
 20
11.5317
 11
73.0473
 21
16.0072
  0
ENDSEC
  0
SECTION
  2
OBJECTS
  0
DICTIONARY
  0
ENDSEC
  0
EOF
