<?xml version="1.0" standalone="no"?>
<!DOCTYPE svg PUBLIC "-//W3C//DTD SVG 1.1//EN" "http://www.w3.org/Graphics/SVG/1.1/DTD/svg11.dtd">
<svg width="264mm" height="122mm" viewBox="-132 -85 264 122" xmlns="http://www.w3.org/2000/svg" version="1.1">
<title>OpenSCAD Model</title>
<path d="
M 62.1495,16.5859 L 131.507,-20.101 L 113.429,-75.7379 L 0.0499878,-85 L -0.0499878,-85 L -113.429,-75.7379
 L -131.507,-20.101 L -62.1495,16.5859 L -0.0499878,37 L 0.0499878,37 z
M -7.55386,28.726 L -54.964,13.3215 L -72.4355,4.07986 L -71.274,2.81433 L -70.3949,1.02635 L -70.0551,-0.936859
 L -70.2822,-2.91629 L -71.0578,-4.75154 L -72.319,-6.29395 L -73.9637,-7.41855 L -75.8586,-8.03423 L -77.8502,-8.09113
 L -79.7771,-7.58463 L -81.4834,-6.55574 L -82.8306,-5.08786 L -83.7097,-3.29988 L -83.9342,-2.00246 L -95.6994,-8.22575
 L -95.6196,-8.38811 L -95.2798,-10.3513 L -95.5069,-12.3307 L -96.2825,-14.166 L -97.5437,-15.7084 L -99.1884,-16.833
 L -101.083,-17.4487 L -103.075,-17.5056 L -105.002,-16.9991 L -106.708,-15.9702 L -107.895,-14.6768 L -124.321,-23.3654
 L -109.535,-68.8735 L -89.1204,-70.5231 L -89.0845,-70.2099 L -88.3089,-68.3747 L -87.0477,-66.8323 L -85.403,-65.7077
 L -83.5081,-65.092 L -81.5165,-65.0351 L -79.5896,-65.5416 L -77.8834,-66.5705 L -76.5362,-68.0384 L -75.6571,-69.8264
 L -75.3439,-71.6363 L -70.6613,-72.0147 L -32.0971,-74.2049 L -23,-74.2049 L -23,-79 L -14,-79
 L -14,-80 L 14,-80 L 14,-79 L 24,-79 L 24,-74.2049 L 32.0971,-74.2049
 L 70.6613,-72.0147 L 75.3439,-71.6363 L 75.6571,-69.8264 L 76.5362,-68.0384 L 77.8834,-66.5705 L 79.5896,-65.5416
 L 81.5165,-65.0351 L 83.5081,-65.092 L 85.403,-65.7077 L 87.0477,-66.8323 L 88.3089,-68.3747 L 89.0845,-70.2099
 L 89.1204,-70.5231 L 109.535,-68.8735 L 124.321,-23.3654 L 107.895,-14.6768 L 106.708,-15.9702 L 105.002,-16.9991
 L 103.075,-17.5056 L 101.083,-17.4487 L 99.1884,-16.833 L 97.5437,-15.7084 L 96.2825,-14.166 L 95.5069,-12.3307
 L 95.2798,-10.3513 L 95.6196,-8.38811 L 95.6994,-8.22575 L 83.9342,-2.00246 L 83.7097,-3.29988 L 82.8306,-5.08786
 L 81.4834,-6.55574 L 79.7771,-7.58463 L 77.8502,-8.09113 L 75.8586,-8.03423 L 73.9637,-7.41855 L 72.319,-6.29395
 L 71.0578,-4.75154 L 70.2822,-2.91629 L 70.0551,-0.936859 L 70.3949,1.02635 L 71.274,2.81433 L 72.4355,4.07986
 L 54.964,13.3215 L 7.55386,28.726 L 7.03406,28.726 L 7.20853,27.2054 L 6.86879,25.2422 L 5.98969,23.4542
 L 4.64247,21.9863 L 2.93628,20.9574 L 1.00932,20.4509 L 0,20.4798 L -1.00932,20.4509 L -2.93628,20.9574
 L -4.64247,21.9863 L -5.98969,23.4542 L -6.86879,25.2422 L -7.20853,27.2054 L -7.03406,28.726 z
M -27.781,-77.3284 L -27.999,-77.9992 L -27.4283,-78.4138 L -26.8577,-77.9992 L -27.0757,-77.3284 z
M 27.0757,-77.3284 L 26.8577,-77.9992 L 27.4283,-78.4138 L 27.999,-77.9992 L 27.781,-77.3284 z
M 82.4871,-69.8873 L 82.2692,-70.5581 L 82.8398,-70.9727 L 83.4104,-70.5581 L 83.1925,-69.8873 z
M -83.1925,-69.8873 L -83.4104,-70.5581 L -82.8398,-70.9727 L -82.2692,-70.5581 L -82.4871,-69.8873 z
M 101.399,-11.6826 L 101.181,-12.3534 L 101.752,-12.768 L 102.322,-12.3534 L 102.104,-11.6826 z
M -102.104,-11.6826 L -102.322,-12.3534 L -101.752,-12.768 L -101.181,-12.3534 L -101.399,-11.6826 z
M 76.6996,-0.651352 L 76.4816,-1.32216 L 77.0523,-1.73676 L 77.6229,-1.32216 L 77.4049,-0.651352 z
M -77.4049,-0.651352 L -77.6229,-1.32216 L -77.0523,-1.73676 L -76.4816,-1.32216 L -76.6996,-0.651352 z
M -0.403931,27.0823 L -0.621902,26.4115 L -0.0512695,25.9969 L 0,26.0342 L 0.0512695,25.9969 L 0.621902,26.4115
 L 0.403931,27.0823 z
" stroke="black" fill="lightgray" stroke-width="0.5"/>
</svg>
